<?xml version="1.0" standalone="no"?><!DOCTYPE svg PUBLIC "-//W3C//DTD SVG 1.1//EN" "http://www.w3.org/Graphics/SVG/1.1/DTD/svg11.dtd"><svg t="1600077629572" class="icon" viewBox="0 0 1024 1024" version="1.1" xmlns="http://www.w3.org/2000/svg" p-id="4793" width="128" height="128" xmlns:xlink="http://www.w3.org/1999/xlink"><defs><style type="text/css"></style></defs><path d="M341.468 569.146H173.48c-61.766 0-111.992 50.228-111.992 111.993v167.987c0 61.767 50.226 111.994 111.992 111.994h167.99c61.737 0 111.992-50.227 111.992-111.994V681.14c-0.001-61.765-50.256-111.993-111.994-111.993z m55.996 279.98c0 30.87-25.127 55.997-55.996 55.997H173.48c-30.896 0-55.995-25.125-55.995-55.997V681.14c0-30.87 25.099-55.998 55.995-55.998h167.99c30.868 0 55.995 25.128 55.995 55.998v167.987z m131.788-316.18L761.44 300.759v184.393c0 15.475 12.523 27.999 27.998 27.999 15.449 0 27.999-12.524 27.999-28V233.17c0-15.475-12.55-27.997-27.999-27.997H537.455c-15.476 0-27.999 12.522-27.999 27.997 0 15.476 12.523 27.998 27.999 27.998h184.392L489.66 493.355c-10.936 10.936-10.936 28.654 0 39.59a27.91 27.91 0 0 0 19.796 8.203 27.91 27.91 0 0 0 19.796-8.202z m316.18-467.764H173.48c-61.766 0-111.992 50.227-111.992 111.992v307.979c0 15.475 12.523 27.999 27.998 27.999 15.448 0 27.999-12.524 27.999-28V177.176c0-30.87 25.099-55.997 55.995-55.997h671.953c30.87 0 55.997 25.128 55.997 55.997v671.952c0 30.87-25.128 55.997-55.997 55.997H537.455c-15.476 0-27.999 12.523-27.999 27.998 0 15.477 12.523 28 27.999 28h307.978c61.738 0 111.993-50.227 111.993-111.994V177.174c0-61.766-50.255-111.992-111.993-111.992z" p-id="4794" fill="#333333"></path></svg>