<?xml version="1.0" standalone="no"?><!DOCTYPE svg PUBLIC "-//W3C//DTD SVG 1.1//EN" "http://www.w3.org/Graphics/SVG/1.1/DTD/svg11.dtd"><svg t="1600078205002" class="icon" viewBox="0 0 1052 1024" version="1.1" xmlns="http://www.w3.org/2000/svg" p-id="15274" xmlns:xlink="http://www.w3.org/1999/xlink" width="131.5" height="128"><defs><style type="text/css"></style></defs><path d="M0.666103 290.074494m66.610291 0l600.038821 0q66.610291 0 66.610291 66.610291l0 600.038821q0 66.610291-66.610291 66.610291l-600.038821 0q-66.610291 0-66.610291-66.610291l0-600.038821q0-66.610291 66.610291-66.610291Z" fill="#666666" p-id="15275"></path><path d="M985.259455 0.679425h-600.025499a66.610291 66.610291 0 0 0-66.610291 66.610291v151.871463h418.539101a66.610291 66.610291 0 0 1 66.610291 66.61029v448.154037h181.486398a66.610291 66.610291 0 0 0 66.610291-66.610291V67.289716a66.610291 66.610291 0 0 0-66.610291-66.610291z" fill="#666666" p-id="15276"></path></svg>